<svg width="427" height="336" viewBox="0 0 427 336" fill="none" xmlns="http://www.w3.org/2000/svg">
<rect x="214" y="72" width="199" height="78.32" fill="#3FFFF3"/>
<path d="M176.065 169.697L176.089 169.703L176.115 169.703L188.901 170.101C189.094 170.112 189.275 170.196 189.408 170.337C189.541 170.478 189.614 170.665 189.613 170.858C189.612 170.956 189.591 171.052 189.552 171.141C189.512 171.23 189.456 171.311 189.385 171.379C189.314 171.446 189.231 171.499 189.139 171.533L189.228 171.767L189.139 171.533C189.048 171.568 188.951 171.584 188.853 171.581L188.853 171.581L176.064 171.184L176.049 171.183L176.034 171.185C175.927 171.194 175.819 171.187 175.714 171.163C175.52 171.116 175.353 170.995 175.248 170.825C175.143 170.655 175.111 170.45 175.157 170.255C175.203 170.061 175.325 169.893 175.495 169.788C175.665 169.683 175.87 169.65 176.065 169.697Z" stroke="#04146C" stroke-width="0.5"/>
<path d="M130.017 245.83L129.988 245.816L129.957 245.81C129.876 245.794 129.799 245.761 129.731 245.713C129.67 245.647 129.622 245.571 129.59 245.488C129.555 245.398 129.538 245.303 129.541 245.207C129.544 245.111 129.566 245.017 129.605 244.929C129.645 244.842 129.702 244.764 129.773 244.699L129.773 244.699L129.776 244.696L139.672 235.349C139.816 235.22 140.004 235.151 140.197 235.157C140.391 235.162 140.574 235.241 140.711 235.378C140.777 235.448 140.829 235.531 140.864 235.622C140.899 235.713 140.915 235.81 140.912 235.908C140.908 236.006 140.886 236.102 140.845 236.19C140.804 236.279 140.746 236.359 140.674 236.425L140.674 236.425L140.672 236.427L130.79 245.751C130.682 245.834 130.554 245.886 130.419 245.9C130.281 245.915 130.142 245.891 130.017 245.83Z" stroke="#04146C" stroke-width="0.5"/>
<path d="M313.986 99.0067L313.964 98.9956L313.94 98.989C313.853 98.965 313.77 98.9292 313.693 98.8826C313.635 98.8167 313.589 98.7409 313.558 98.6587C313.523 98.5674 313.507 98.4701 313.51 98.3725C313.513 98.2748 313.536 98.1788 313.577 98.09C313.618 98.0012 313.676 97.9214 313.748 97.8552L313.748 97.8552L313.75 97.853L336.644 76.2456C336.788 76.1167 336.976 76.0479 337.169 76.0532C337.362 76.0586 337.546 76.1379 337.683 76.2746C337.749 76.345 337.801 76.4278 337.836 76.5183L338.069 76.4294L337.836 76.5183C337.871 76.6096 337.887 76.7069 337.884 76.8046C337.88 76.9023 337.858 76.9983 337.817 77.0871C337.776 77.1759 337.718 77.2557 337.646 77.3218L337.646 77.3218L337.644 77.324L314.754 98.9269C314.648 99.0114 314.521 99.0641 314.386 99.0789L314.413 99.3274L314.386 99.0789C314.248 99.094 314.109 99.0689 313.986 99.0067Z" stroke="#04146C" stroke-width="0.5"/>
<path d="M145.992 105.76L145.967 105.748L145.94 105.742C145.857 105.724 145.779 105.691 145.71 105.644L129.555 88.4245L129.546 88.4153L129.537 88.4071C129.46 88.3397 129.397 88.2568 129.354 88.1638C129.31 88.0709 129.287 87.9699 129.285 87.8673C129.283 87.7647 129.302 87.6628 129.342 87.5682C129.381 87.4735 129.44 87.3882 129.515 87.3177C129.589 87.2472 129.678 87.1931 129.775 87.1588C129.871 87.1245 129.974 87.1108 130.076 87.1186C130.179 87.1264 130.278 87.1555 130.369 87.204C130.459 87.2525 130.538 87.3194 130.601 87.4004L130.609 87.4098L130.617 87.4185L146.837 104.59C146.966 104.734 147.035 104.922 147.03 105.115C147.024 105.308 146.945 105.492 146.809 105.629C146.702 105.729 146.567 105.796 146.422 105.82C146.276 105.843 146.126 105.823 145.992 105.76Z" stroke="#04146C" stroke-width="0.5"/>
<path d="M318.468 250.281L318.454 250.274L318.438 250.27C318.351 250.245 318.267 250.209 318.188 250.162L299.579 230.289C299.444 230.145 299.372 229.954 299.379 229.756C299.385 229.559 299.47 229.372 299.614 229.237C299.758 229.103 299.95 229.03 300.147 229.037C300.345 229.044 300.531 229.128 300.666 229.272L300.666 229.272L300.667 229.273L319.321 249.072L319.321 249.072L319.324 249.075C319.391 249.144 319.444 249.225 319.479 249.315C319.514 249.404 319.53 249.5 319.528 249.596C319.525 249.692 319.503 249.786 319.463 249.873C319.423 249.961 319.366 250.039 319.296 250.104L319.29 250.109L319.285 250.114C319.181 250.221 319.048 250.294 318.902 250.324C318.756 250.354 318.605 250.339 318.468 250.281Z" stroke="#04146C" stroke-width="0.5"/>
<path d="M167.056 193.57L167.056 220.231C167.056 228.418 191.802 235 223.333 235C254.864 235 279.611 228.363 279.611 220.231L279.611 193.57L167.056 193.57Z" fill="white" stroke="#04146C" stroke-width="2" stroke-miterlimit="10" stroke-linecap="round" stroke-linejoin="round"/>
<path d="M223.5 179.299C254.697 179.299 280 185.826 280 193.957C280 202.033 254.697 208.616 223.5 208.616C192.303 208.616 167 202.089 167 193.957C167 185.826 192.303 179.299 223.5 179.299Z" fill="white" stroke="#04146C" stroke-miterlimit="10" stroke-linecap="round" stroke-linejoin="round"/>
<path d="M171.449 167.241L171.449 190.694C171.449 198.272 195.195 204.411 224.39 204.411C253.586 204.411 277.331 198.272 277.331 190.694L277.331 167.241L171.449 167.241Z" fill="#04146C"/>
<path d="M167.056 158.446L167.056 184.222C167.056 192.408 191.802 198.991 223.333 198.991C254.864 198.991 279.611 192.353 279.611 184.222L279.611 158.446L167.056 158.446Z" fill="white" stroke="#04146C" stroke-width="2" stroke-miterlimit="10" stroke-linecap="round" stroke-linejoin="round"/>
<path d="M223.5 143.622C254.697 143.622 280 150.149 280 158.28C280 166.356 254.697 172.938 223.5 172.938C192.303 172.938 167 166.356 167 158.28C167 150.204 192.303 143.622 223.5 143.622Z" fill="white" stroke="#04146C" stroke-miterlimit="10" stroke-linecap="round" stroke-linejoin="round"/>
<path d="M171.449 129.904L171.449 154.685C171.449 162.263 195.195 168.403 224.39 168.403C253.586 168.403 277.331 162.263 277.331 154.685L277.331 129.904L171.449 129.904Z" fill="#04146C"/>
<path d="M167.056 123.322L167.056 148.158C167.056 156.344 191.802 162.982 223.333 162.982C254.864 162.982 279.611 156.344 279.611 148.158L279.611 123.322L167.056 123.322Z" fill="white" stroke="#04146C" stroke-width="2" stroke-miterlimit="10" stroke-linecap="round" stroke-linejoin="round"/>
<path d="M223.5 108C254.697 108 280 114.527 280 122.658C280 130.789 254.697 137.316 223.5 137.316C192.303 137.316 167 130.789 167 122.658C167 114.527 192.303 108 223.5 108Z" fill="white" stroke="#04146C" stroke-miterlimit="10" stroke-linecap="round" stroke-linejoin="round"/>
<path d="M228.671 150.868C228.671 153.523 226.502 155.68 223.833 155.68C221.164 155.68 218.995 153.523 218.995 150.868C218.995 148.213 221.164 146.056 223.833 146.056C226.502 146.056 228.671 148.213 228.671 150.868Z" fill="#04146C"/>
<path d="M210.542 148.877C210.542 151.532 208.374 153.689 205.704 153.689C203.035 153.689 200.866 151.532 200.866 148.877C200.866 146.222 203.035 144.064 205.704 144.064C208.374 144.064 210.542 146.222 210.542 148.877Z" fill="#04146C"/>
<path d="M246.745 148.877C246.745 151.532 244.576 153.689 241.906 153.689C239.237 153.689 237.068 151.532 237.068 148.877C237.068 146.222 239.237 144.064 241.906 144.064C244.576 144.064 246.745 146.222 246.745 148.877Z" fill="#04146C"/>
<path d="M228.671 187.098C228.671 189.753 226.502 191.911 223.833 191.911C221.164 191.911 218.995 189.753 218.995 187.098C218.995 184.443 221.164 182.286 223.833 182.286C226.502 182.286 228.671 184.443 228.671 187.098Z" fill="#04146C"/>
<path d="M210.542 185.107C210.542 187.762 208.374 189.919 205.704 189.919C203.035 189.919 200.866 187.762 200.866 185.107C200.866 182.452 203.035 180.295 205.704 180.295C208.374 180.295 210.542 182.452 210.542 185.107Z" fill="#04146C"/>
<path d="M246.745 185.107C246.745 187.762 244.576 189.919 241.906 189.919C239.237 189.919 237.068 187.762 237.068 185.107C237.068 182.452 239.237 180.295 241.906 180.295C244.576 180.295 246.745 182.452 246.745 185.107Z" fill="#04146C"/>
<path d="M228.671 222.388C228.671 225.043 226.502 227.201 223.833 227.201C221.164 227.201 218.995 225.043 218.995 222.388C218.995 219.733 221.164 217.576 223.833 217.576C226.502 217.631 228.671 219.733 228.671 222.388Z" fill="#04146C"/>
<path d="M210.542 220.397C210.542 223.052 208.374 225.21 205.704 225.21C203.035 225.21 200.866 223.052 200.866 220.397C200.866 217.742 203.035 215.585 205.704 215.585C208.374 215.585 210.542 217.742 210.542 220.397Z" fill="#04146C"/>
<path d="M246.745 220.397C246.745 223.052 244.576 225.21 241.906 225.21C239.237 225.21 237.068 223.052 237.068 220.397C237.068 217.742 239.237 215.585 241.906 215.585C244.576 215.585 246.745 217.742 246.745 220.397Z" fill="#04146C"/>
<rect x="0.21651" y="0.375007" width="18.3321" height="18.3321" transform="matrix(0.86601 0.500028 3.18351e-05 1 260.339 43.8917)" stroke="#04146C" stroke-width="0.5"/>
<rect x="0.216494" y="0.124993" width="18.3321" height="18.3321" transform="matrix(0.86601 -0.500028 -3.18351e-05 1 244.031 53.5257)" stroke="#04146C" stroke-width="0.5" stroke-dasharray="2 2"/>
<rect y="0.249986" width="18.3321" height="18.3321" transform="matrix(0.866041 0.499972 -0.866041 0.499972 260.526 62.9556)" stroke="#04146C" stroke-width="0.5" stroke-dasharray="2 2"/>
<rect x="0.21651" y="0.375007" width="18.3321" height="18.3321" transform="matrix(0.86601 0.500028 3.18351e-05 1 244.029 53.3043)" stroke="#04146C" stroke-width="0.5"/>
<rect x="0.216494" y="0.124993" width="18.3321" height="18.3321" transform="matrix(0.86601 -0.500028 -3.18351e-05 1 260.339 62.9388)" stroke="#04146C" stroke-width="0.5"/>
<rect x="0.433021" width="18.3321" height="18.3321" transform="matrix(0.866041 -0.499972 0.866041 0.499972 244.058 53.634)" stroke="#04146C" stroke-width="0.5"/>
<rect x="0.21651" y="0.375007" width="13.9335" height="13.9335" transform="matrix(0.86601 0.500028 3.18351e-05 1 36.529 157.892)" stroke="#04146C" stroke-width="0.5"/>
<rect x="0.216494" y="0.124993" width="13.9335" height="13.9335" transform="matrix(0.86601 -0.500028 -3.18351e-05 1 24.03 165.326)" stroke="#04146C" stroke-width="0.5" stroke-dasharray="2 2"/>
<rect y="0.249986" width="13.9335" height="13.9335" transform="matrix(0.866041 0.499972 -0.866041 0.499972 36.7165 172.558)" stroke="#04146C" stroke-width="0.5" stroke-dasharray="2 2"/>
<rect x="0.21651" y="0.375007" width="13.9335" height="13.9335" transform="matrix(0.86601 0.500028 3.18351e-05 1 24.029 165.106)" stroke="#04146C" stroke-width="0.5"/>
<rect x="0.216494" y="0.124993" width="13.9335" height="13.9335" transform="matrix(0.86601 -0.500028 -3.18351e-05 1 36.529 172.541)" stroke="#04146C" stroke-width="0.5"/>
<rect x="0.433021" width="13.9335" height="13.9335" transform="matrix(0.866041 -0.499972 0.866041 0.499972 24.058 165.434)" stroke="#04146C" stroke-width="0.5"/>
<rect x="0.21651" y="0.375007" width="13.9335" height="13.9335" transform="matrix(0.86601 0.500028 3.18351e-05 1 350.529 193.892)" stroke="#04146C" stroke-width="0.5"/>
<rect x="0.216494" y="0.124993" width="13.9335" height="13.9335" transform="matrix(0.86601 -0.500028 -3.18351e-05 1 338.03 201.326)" stroke="#04146C" stroke-width="0.5" stroke-dasharray="2 2"/>
<rect y="0.249986" width="13.9335" height="13.9335" transform="matrix(0.866041 0.499972 -0.866041 0.499972 350.716 208.558)" stroke="#04146C" stroke-width="0.5" stroke-dasharray="2 2"/>
<rect x="0.21651" y="0.375007" width="13.9335" height="13.9335" transform="matrix(0.86601 0.500028 3.18351e-05 1 338.029 201.106)" stroke="#04146C" stroke-width="0.5"/>
<rect x="0.216494" y="0.124993" width="13.9335" height="13.9335" transform="matrix(0.86601 -0.500028 -3.18351e-05 1 350.529 208.541)" stroke="#04146C" stroke-width="0.5"/>
<rect x="0.433021" width="13.9335" height="13.9335" transform="matrix(0.866041 -0.499972 0.866041 0.499972 338.058 201.434)" stroke="#04146C" stroke-width="0.5"/>
<path d="M20.47 245.719H122.441C123.348 245.719 124.219 246.08 124.861 246.722C125.502 247.363 125.863 248.234 125.863 249.142V316.348H17.0508V249.142C17.0508 248.235 17.4109 247.365 18.052 246.723C18.6932 246.081 19.5628 245.72 20.47 245.719Z" fill="#04146C" stroke="#04146C" stroke-width="0.771165" stroke-miterlimit="10"/>
<path d="M21.8494 307.358V251.625H121.063V307.358H21.8494Z" fill="white" stroke="#04146C" stroke-width="0.771165"/>
<path d="M121.579 251.246H21.5068V310.798H121.579V251.246Z" fill="white" stroke="#04146C" stroke-width="0.771165" stroke-miterlimit="10"/>
<path d="M109.3 316.322H34.3994V316.936H109.3V316.322Z" fill="#04146C" stroke="#04146C" stroke-width="0.533405" stroke-miterlimit="10"/>
<path d="M109.094 314.725H34.3135V316.636H109.094V314.725Z" fill="#04146C" stroke="#04146C" stroke-width="0.533405" stroke-miterlimit="10"/>
<path d="M8.24902 318.819C8.24902 318.819 9.47928 320.321 13.157 321.548H130.247C130.247 321.548 132.976 320.864 134.206 318.953L8.24902 318.819Z" fill="#04146C" stroke="#04146C" stroke-width="0.771165" stroke-miterlimit="10"/>
<path d="M133.588 316.128H8.88343C8.39552 316.128 8 316.524 8 317.012V318.114C8 318.602 8.39552 318.998 8.88343 318.998H133.588C134.075 318.998 134.471 318.602 134.471 318.114V317.012C134.471 316.524 134.075 316.128 133.588 316.128Z" fill="white" stroke="#04146C" stroke-width="0.771165" stroke-miterlimit="10"/>
<path d="M71.4339 249.425C71.9616 249.425 72.3893 248.998 72.3893 248.47C72.3893 247.942 71.9616 247.515 71.4339 247.515C70.9063 247.515 70.4785 247.942 70.4785 248.47C70.4785 248.998 70.9063 249.425 71.4339 249.425Z" fill="#04146C"/>
<path d="M123.699 265.596C123.626 265.596 123.557 265.567 123.505 265.516C123.454 265.465 123.425 265.396 123.424 265.324V257.409C123.425 257.336 123.454 257.267 123.505 257.216C123.557 257.164 123.626 257.135 123.699 257.134C123.771 257.135 123.84 257.164 123.891 257.216C123.942 257.267 123.97 257.337 123.97 257.409V265.324C123.97 265.396 123.942 265.465 123.891 265.516C123.84 265.567 123.771 265.596 123.699 265.596Z" fill="#04146C" stroke="#04146C" stroke-width="0.533405" stroke-miterlimit="10"/>
<path d="M65.0677 271.137H39.3316V295.775H67.2725" stroke="#04146C" stroke-width="0.464871" stroke-miterlimit="10"/>
<path d="M77.332 276.066V267.336H61.6217V276.066H77.332Z" fill="white" stroke="#04146C" stroke-width="0.464871"/>
<path d="M31.2437 278.128H47.4189V287.323H31.2437V278.128Z" fill="#04146C"/>
<path d="M61.3892 289.15H77.5645V298.345H61.3892V289.15Z" fill="#04146C"/>
<path d="M368.918 244.718V244.982H369.181H426.202V324.343H340.264V246.416V244.718V240.264H368.918V244.718Z" fill="#04146C" stroke="#04146C" stroke-width="0.527377"/>
<path d="M422.298 249.297H343.719V321.021H422.298V249.297Z" fill="white" stroke="#04146C" stroke-width="0.527377" stroke-linecap="round" stroke-linejoin="round"/>
<path d="M347.484 273.839H418.752" stroke="#04146C" stroke-width="0.263689" stroke-miterlimit="10"/>
<path d="M347.701 264.632V262.578H357.271V264.632H347.701Z" stroke="#04146C" stroke-width="0.527377"/>
<path d="M347.701 269.074V267.019H357.271V269.074H347.701Z" stroke="#04146C" stroke-width="0.527377"/>
<path d="M362.486 268.797C362.11 268.797 361.787 268.74 361.517 268.626C361.247 268.512 361.043 268.362 360.903 268.176C360.764 267.991 360.69 267.79 360.682 267.575C360.682 267.537 360.695 267.506 360.72 267.48C360.745 267.455 360.777 267.442 360.815 267.442H361.378C361.429 267.442 361.467 267.453 361.492 267.474C361.522 267.491 361.549 267.52 361.574 267.563C361.616 267.706 361.713 267.826 361.865 267.923C362.017 268.02 362.224 268.069 362.486 268.069C362.785 268.069 363.011 268.02 363.163 267.923C363.315 267.822 363.391 267.683 363.391 267.506C363.391 267.388 363.35 267.29 363.27 267.215C363.194 267.139 363.078 267.073 362.922 267.018C362.77 266.964 362.543 266.896 362.239 266.816C361.741 266.698 361.376 266.542 361.144 266.348C360.916 266.149 360.802 265.869 360.802 265.506C360.802 265.261 360.868 265.044 360.998 264.854C361.133 264.664 361.325 264.514 361.574 264.405C361.827 264.295 362.121 264.24 362.454 264.24C362.8 264.24 363.099 264.301 363.353 264.424C363.606 264.546 363.798 264.7 363.928 264.886C364.063 265.067 364.135 265.248 364.144 265.43C364.144 265.468 364.131 265.5 364.106 265.525C364.08 265.55 364.049 265.563 364.011 265.563H363.422C363.334 265.563 363.272 265.523 363.239 265.443C363.213 265.308 363.129 265.196 362.986 265.107C362.842 265.014 362.665 264.968 362.454 264.968C362.218 264.968 362.032 265.012 361.897 265.101C361.762 265.189 361.694 265.318 361.694 265.487C361.694 265.605 361.728 265.702 361.796 265.778C361.863 265.854 361.969 265.921 362.112 265.98C362.26 266.04 362.471 266.105 362.745 266.177C363.116 266.261 363.412 266.356 363.631 266.461C363.855 266.567 364.019 266.7 364.125 266.86C364.23 267.02 364.283 267.225 364.283 267.474C364.283 267.744 364.207 267.98 364.055 268.183C363.907 268.381 363.696 268.533 363.422 268.638C363.152 268.744 362.84 268.797 362.486 268.797ZM366.35 268.797C365.881 268.797 365.508 268.662 365.23 268.392C364.955 268.117 364.81 267.733 364.793 267.24L364.787 267.082L364.793 266.923C364.814 266.442 364.962 266.065 365.236 265.791C365.514 265.516 365.886 265.379 366.35 265.379C366.848 265.379 367.232 265.531 367.502 265.835C367.776 266.139 367.913 266.544 367.913 267.05V267.183C367.913 267.225 367.898 267.261 367.869 267.29C367.839 267.32 367.801 267.335 367.755 267.335H365.654V267.385C365.662 267.617 365.725 267.814 365.843 267.974C365.966 268.13 366.132 268.208 366.343 268.208C366.592 268.208 366.793 268.111 366.945 267.917C366.983 267.871 367.012 267.841 367.033 267.828C367.059 267.816 367.094 267.809 367.141 267.809H367.685C367.723 267.809 367.755 267.822 367.78 267.847C367.81 267.868 367.824 267.896 367.824 267.93C367.824 268.031 367.763 268.151 367.641 268.29C367.523 268.425 367.352 268.544 367.128 268.645C366.905 268.746 366.645 268.797 366.35 268.797ZM367.052 266.803V266.784C367.052 266.535 366.989 266.335 366.862 266.183C366.74 266.031 366.569 265.955 366.35 265.955C366.13 265.955 365.96 266.031 365.837 266.183C365.715 266.335 365.654 266.535 365.654 266.784V266.803H367.052ZM368.737 268.733C368.694 268.733 368.659 268.719 368.629 268.689C368.599 268.66 368.585 268.624 368.585 268.582V265.601C368.585 265.559 368.599 265.523 368.629 265.493C368.659 265.459 368.694 265.443 368.737 265.443H369.249C369.296 265.443 369.334 265.457 369.363 265.487C369.393 265.516 369.407 265.554 369.407 265.601V265.86C369.509 265.725 369.635 265.622 369.787 265.55C369.943 265.478 370.12 265.443 370.319 265.443H370.578C370.625 265.443 370.66 265.457 370.686 265.487C370.715 265.512 370.73 265.548 370.73 265.594V266.05C370.73 266.092 370.715 266.128 370.686 266.158C370.66 266.187 370.625 266.202 370.578 266.202H370.085C369.886 266.202 369.73 266.259 369.616 266.373C369.502 266.487 369.445 266.643 369.445 266.841V268.582C369.445 268.624 369.431 268.66 369.401 268.689C369.372 268.719 369.334 268.733 369.287 268.733H368.737ZM372.388 268.733C372.325 268.733 372.276 268.721 372.243 268.695C372.209 268.666 372.181 268.626 372.16 268.575L370.977 265.639L370.964 265.582C370.964 265.544 370.977 265.512 371.002 265.487C371.032 265.457 371.065 265.443 371.103 265.443H371.616C371.696 265.443 371.751 265.483 371.781 265.563L372.622 267.784L373.464 265.563C373.477 265.533 373.496 265.506 373.521 265.481C373.55 265.455 373.586 265.443 373.628 265.443H374.147C374.181 265.443 374.211 265.457 374.236 265.487C374.266 265.512 374.28 265.544 374.28 265.582C374.28 265.607 374.278 265.626 374.274 265.639L373.084 268.575C373.063 268.626 373.036 268.666 373.002 268.695C372.968 268.721 372.92 268.733 372.856 268.733H372.388ZM374.984 264.898C374.942 264.898 374.906 264.884 374.877 264.854C374.847 264.824 374.832 264.789 374.832 264.746V264.291C374.832 264.249 374.847 264.213 374.877 264.183C374.906 264.154 374.942 264.139 374.984 264.139H375.56C375.602 264.139 375.638 264.154 375.668 264.183C375.701 264.213 375.718 264.249 375.718 264.291V264.746C375.718 264.789 375.703 264.824 375.674 264.854C375.644 264.884 375.606 264.898 375.56 264.898H374.984ZM375.009 268.733C374.967 268.733 374.931 268.719 374.902 268.689C374.872 268.66 374.858 268.624 374.858 268.582V265.594C374.858 265.552 374.872 265.516 374.902 265.487C374.931 265.457 374.967 265.443 375.009 265.443H375.535C375.581 265.443 375.617 265.457 375.642 265.487C375.672 265.512 375.687 265.548 375.687 265.594V268.582C375.687 268.624 375.672 268.66 375.642 268.689C375.617 268.719 375.581 268.733 375.535 268.733H375.009ZM377.748 268.797C377.322 268.797 376.995 268.66 376.767 268.385C376.539 268.111 376.417 267.746 376.4 267.29L376.393 267.082L376.4 266.879C376.412 266.436 376.533 266.075 376.76 265.797C376.992 265.519 377.322 265.379 377.748 265.379C378.157 265.379 378.482 265.519 378.722 265.797V264.392C378.722 264.346 378.737 264.31 378.767 264.284C378.796 264.255 378.832 264.24 378.874 264.24H379.412C379.458 264.24 379.494 264.255 379.52 264.284C379.549 264.31 379.564 264.346 379.564 264.392V268.582C379.564 268.624 379.549 268.66 379.52 268.689C379.494 268.719 379.458 268.733 379.412 268.733H378.912C378.87 268.733 378.834 268.719 378.805 268.689C378.775 268.66 378.76 268.624 378.76 268.582V268.347C378.52 268.647 378.182 268.797 377.748 268.797ZM377.982 268.12C378.226 268.12 378.408 268.041 378.526 267.885C378.644 267.729 378.71 267.537 378.722 267.309C378.726 267.259 378.729 267.177 378.729 267.063C378.729 266.953 378.726 266.873 378.722 266.822C378.714 266.611 378.646 266.432 378.52 266.284C378.397 266.132 378.218 266.056 377.982 266.056C377.526 266.056 377.284 266.337 377.254 266.898L377.248 267.088L377.254 267.278C377.284 267.839 377.526 268.12 377.982 268.12ZM381.863 268.797C381.369 268.797 380.988 268.67 380.717 268.417C380.447 268.16 380.302 267.809 380.281 267.366L380.275 267.088L380.281 266.81C380.302 266.371 380.45 266.023 380.724 265.765C380.998 265.508 381.378 265.379 381.863 265.379C382.348 265.379 382.728 265.508 383.002 265.765C383.276 266.023 383.424 266.371 383.445 266.81C383.449 266.86 383.451 266.953 383.451 267.088C383.451 267.223 383.449 267.316 383.445 267.366C383.424 267.809 383.278 268.16 383.008 268.417C382.738 268.67 382.357 268.797 381.863 268.797ZM381.863 268.17C382.087 268.17 382.26 268.101 382.382 267.961C382.504 267.818 382.572 267.609 382.584 267.335C382.589 267.293 382.591 267.21 382.591 267.088C382.591 266.966 382.589 266.883 382.584 266.841C382.572 266.567 382.504 266.36 382.382 266.221C382.26 266.078 382.087 266.006 381.863 266.006C381.639 266.006 381.466 266.078 381.344 266.221C381.222 266.36 381.154 266.567 381.142 266.841L381.135 267.088L381.142 267.335C381.154 267.609 381.222 267.818 381.344 267.961C381.466 268.101 381.639 268.17 381.863 268.17ZM384.304 268.733C384.262 268.733 384.226 268.719 384.197 268.689C384.167 268.66 384.153 268.624 384.153 268.582V265.601C384.153 265.559 384.167 265.523 384.197 265.493C384.226 265.459 384.262 265.443 384.304 265.443H384.817C384.864 265.443 384.901 265.457 384.931 265.487C384.961 265.516 384.975 265.554 384.975 265.601V265.86C385.077 265.725 385.203 265.622 385.355 265.55C385.511 265.478 385.688 265.443 385.887 265.443H386.146C386.192 265.443 386.228 265.457 386.254 265.487C386.283 265.512 386.298 265.548 386.298 265.594V266.05C386.298 266.092 386.283 266.128 386.254 266.158C386.228 266.187 386.192 266.202 386.146 266.202H385.652C385.454 266.202 385.298 266.259 385.184 266.373C385.07 266.487 385.013 266.643 385.013 266.841V268.582C385.013 268.624 384.999 268.66 384.969 268.689C384.939 268.719 384.901 268.733 384.855 268.733H384.304ZM389.437 268.733C389.395 268.733 389.359 268.719 389.329 268.689C389.3 268.66 389.285 268.624 389.285 268.582V265.303L388.323 266.044C388.298 266.065 388.268 266.075 388.235 266.075C388.184 266.075 388.142 266.052 388.108 266.006L387.842 265.664C387.821 265.63 387.811 265.599 387.811 265.569C387.811 265.519 387.834 265.476 387.88 265.443L389.298 264.348C389.336 264.318 389.389 264.303 389.456 264.303H390.013C390.059 264.303 390.095 264.318 390.121 264.348C390.15 264.373 390.165 264.409 390.165 264.455V268.582C390.165 268.624 390.15 268.66 390.121 268.689C390.095 268.719 390.059 268.733 390.013 268.733H389.437Z" fill="#04146C"/>
<path d="M347.701 285.455V283.4H357.271V285.455H347.701Z" stroke="#04146C" stroke-width="0.527377"/>
<path d="M347.701 289.897V287.842H357.271V289.897H347.701Z" stroke="#04146C" stroke-width="0.527377"/>
<path d="M347.484 294.246H418.752" stroke="#04146C" stroke-width="0.263689" stroke-miterlimit="10"/>
<path d="M362.486 289.251C362.11 289.251 361.787 289.194 361.517 289.08C361.247 288.966 361.043 288.816 360.903 288.631C360.764 288.445 360.69 288.245 360.682 288.029C360.682 287.991 360.695 287.96 360.72 287.934C360.745 287.909 360.777 287.896 360.815 287.896H361.378C361.429 287.896 361.467 287.907 361.492 287.928C361.522 287.945 361.549 287.975 361.574 288.017C361.616 288.16 361.713 288.28 361.865 288.377C362.017 288.474 362.224 288.523 362.486 288.523C362.785 288.523 363.011 288.474 363.163 288.377C363.315 288.276 363.391 288.137 363.391 287.96C363.391 287.842 363.35 287.745 363.27 287.669C363.194 287.593 363.078 287.527 362.922 287.472C362.77 287.418 362.543 287.35 362.239 287.27C361.741 287.152 361.376 286.996 361.144 286.802C360.916 286.603 360.802 286.323 360.802 285.96C360.802 285.715 360.868 285.498 360.998 285.308C361.133 285.118 361.325 284.968 361.574 284.859C361.827 284.749 362.121 284.694 362.454 284.694C362.8 284.694 363.099 284.755 363.353 284.878C363.606 285 363.798 285.154 363.928 285.34C364.063 285.521 364.135 285.703 364.144 285.884C364.144 285.922 364.131 285.954 364.106 285.979C364.08 286.004 364.049 286.017 364.011 286.017H363.422C363.334 286.017 363.272 285.977 363.239 285.897C363.213 285.762 363.129 285.65 362.986 285.561C362.842 285.468 362.665 285.422 362.454 285.422C362.218 285.422 362.032 285.466 361.897 285.555C361.762 285.644 361.694 285.772 361.694 285.941C361.694 286.059 361.728 286.156 361.796 286.232C361.863 286.308 361.969 286.376 362.112 286.435C362.26 286.494 362.471 286.559 362.745 286.631C363.116 286.715 363.412 286.81 363.631 286.916C363.855 287.021 364.019 287.154 364.125 287.314C364.23 287.475 364.283 287.679 364.283 287.928C364.283 288.198 364.207 288.434 364.055 288.637C363.907 288.835 363.696 288.987 363.422 289.093C363.152 289.198 362.84 289.251 362.486 289.251ZM366.35 289.251C365.881 289.251 365.508 289.116 365.23 288.846C364.955 288.572 364.81 288.188 364.793 287.694L364.787 287.536L364.793 287.378C364.814 286.897 364.962 286.519 365.236 286.245C365.514 285.97 365.886 285.833 366.35 285.833C366.848 285.833 367.232 285.985 367.502 286.289C367.776 286.593 367.913 286.998 367.913 287.504V287.637C367.913 287.679 367.898 287.715 367.869 287.745C367.839 287.774 367.801 287.789 367.755 287.789H365.654V287.84C365.662 288.072 365.725 288.268 365.843 288.428C365.966 288.584 366.132 288.662 366.343 288.662C366.592 288.662 366.793 288.565 366.945 288.371C366.983 288.325 367.012 288.295 367.033 288.283C367.059 288.27 367.094 288.264 367.141 288.264H367.685C367.723 288.264 367.755 288.276 367.78 288.302C367.81 288.323 367.824 288.35 367.824 288.384C367.824 288.485 367.763 288.605 367.641 288.745C367.523 288.88 367.352 288.998 367.128 289.099C366.905 289.2 366.645 289.251 366.35 289.251ZM367.052 287.257V287.238C367.052 286.989 366.989 286.789 366.862 286.637C366.74 286.485 366.569 286.409 366.35 286.409C366.13 286.409 365.96 286.485 365.837 286.637C365.715 286.789 365.654 286.989 365.654 287.238V287.257H367.052ZM368.737 289.188C368.694 289.188 368.659 289.173 368.629 289.143C368.599 289.114 368.585 289.078 368.585 289.036V286.055C368.585 286.013 368.599 285.977 368.629 285.947C368.659 285.914 368.694 285.897 368.737 285.897H369.249C369.296 285.897 369.334 285.911 369.363 285.941C369.393 285.97 369.407 286.008 369.407 286.055V286.314C369.509 286.179 369.635 286.076 369.787 286.004C369.943 285.933 370.12 285.897 370.319 285.897H370.578C370.625 285.897 370.66 285.911 370.686 285.941C370.715 285.966 370.73 286.002 370.73 286.049V286.504C370.73 286.546 370.715 286.582 370.686 286.612C370.66 286.641 370.625 286.656 370.578 286.656H370.085C369.886 286.656 369.73 286.713 369.616 286.827C369.502 286.941 369.445 287.097 369.445 287.295V289.036C369.445 289.078 369.431 289.114 369.401 289.143C369.372 289.173 369.334 289.188 369.287 289.188H368.737ZM372.388 289.188C372.325 289.188 372.276 289.175 372.243 289.15C372.209 289.12 372.181 289.08 372.16 289.029L370.977 286.093L370.964 286.036C370.964 285.998 370.977 285.966 371.002 285.941C371.032 285.911 371.065 285.897 371.103 285.897H371.616C371.696 285.897 371.751 285.937 371.781 286.017L372.622 288.238L373.464 286.017C373.477 285.987 373.496 285.96 373.521 285.935C373.55 285.909 373.586 285.897 373.628 285.897H374.147C374.181 285.897 374.211 285.911 374.236 285.941C374.266 285.966 374.28 285.998 374.28 286.036C374.28 286.061 374.278 286.08 374.274 286.093L373.084 289.029C373.063 289.08 373.036 289.12 373.002 289.15C372.968 289.175 372.92 289.188 372.856 289.188H372.388ZM374.984 285.352C374.942 285.352 374.906 285.338 374.877 285.308C374.847 285.279 374.832 285.243 374.832 285.201V284.745C374.832 284.703 374.847 284.667 374.877 284.637C374.906 284.608 374.942 284.593 374.984 284.593H375.56C375.602 284.593 375.638 284.608 375.668 284.637C375.701 284.667 375.718 284.703 375.718 284.745V285.201C375.718 285.243 375.703 285.279 375.674 285.308C375.644 285.338 375.606 285.352 375.56 285.352H374.984ZM375.009 289.188C374.967 289.188 374.931 289.173 374.902 289.143C374.872 289.114 374.858 289.078 374.858 289.036V286.049C374.858 286.006 374.872 285.97 374.902 285.941C374.931 285.911 374.967 285.897 375.009 285.897H375.535C375.581 285.897 375.617 285.911 375.642 285.941C375.672 285.966 375.687 286.002 375.687 286.049V289.036C375.687 289.078 375.672 289.114 375.642 289.143C375.617 289.173 375.581 289.188 375.535 289.188H375.009ZM377.748 289.251C377.322 289.251 376.995 289.114 376.767 288.839C376.539 288.565 376.417 288.2 376.4 287.745L376.393 287.536L376.4 287.333C376.412 286.89 376.533 286.53 376.76 286.251C376.992 285.973 377.322 285.833 377.748 285.833C378.157 285.833 378.482 285.973 378.722 286.251V284.846C378.722 284.8 378.737 284.764 378.767 284.739C378.796 284.709 378.832 284.694 378.874 284.694H379.412C379.458 284.694 379.494 284.709 379.52 284.739C379.549 284.764 379.564 284.8 379.564 284.846V289.036C379.564 289.078 379.549 289.114 379.52 289.143C379.494 289.173 379.458 289.188 379.412 289.188H378.912C378.87 289.188 378.834 289.173 378.805 289.143C378.775 289.114 378.76 289.078 378.76 289.036V288.801C378.52 289.101 378.182 289.251 377.748 289.251ZM377.982 288.574C378.226 288.574 378.408 288.496 378.526 288.339C378.644 288.183 378.71 287.991 378.722 287.764C378.726 287.713 378.729 287.631 378.729 287.517C378.729 287.407 378.726 287.327 378.722 287.276C378.714 287.065 378.646 286.886 378.52 286.738C378.397 286.586 378.218 286.511 377.982 286.511C377.526 286.511 377.284 286.791 377.254 287.352L377.248 287.542L377.254 287.732C377.284 288.293 377.526 288.574 377.982 288.574ZM381.863 289.251C381.369 289.251 380.988 289.124 380.717 288.871C380.447 288.614 380.302 288.264 380.281 287.821L380.275 287.542L380.281 287.264C380.302 286.825 380.45 286.477 380.724 286.219C380.998 285.962 381.378 285.833 381.863 285.833C382.348 285.833 382.728 285.962 383.002 286.219C383.276 286.477 383.424 286.825 383.445 287.264C383.449 287.314 383.451 287.407 383.451 287.542C383.451 287.677 383.449 287.77 383.445 287.821C383.424 288.264 383.278 288.614 383.008 288.871C382.738 289.124 382.357 289.251 381.863 289.251ZM381.863 288.624C382.087 288.624 382.26 288.555 382.382 288.415C382.504 288.272 382.572 288.063 382.584 287.789C382.589 287.747 382.591 287.664 382.591 287.542C382.591 287.42 382.589 287.337 382.584 287.295C382.572 287.021 382.504 286.814 382.382 286.675C382.26 286.532 382.087 286.46 381.863 286.46C381.639 286.46 381.466 286.532 381.344 286.675C381.222 286.814 381.154 287.021 381.142 287.295L381.135 287.542L381.142 287.789C381.154 288.063 381.222 288.272 381.344 288.415C381.466 288.555 381.639 288.624 381.863 288.624ZM384.304 289.188C384.262 289.188 384.226 289.173 384.197 289.143C384.167 289.114 384.153 289.078 384.153 289.036V286.055C384.153 286.013 384.167 285.977 384.197 285.947C384.226 285.914 384.262 285.897 384.304 285.897H384.817C384.864 285.897 384.901 285.911 384.931 285.941C384.961 285.97 384.975 286.008 384.975 286.055V286.314C385.077 286.179 385.203 286.076 385.355 286.004C385.511 285.933 385.688 285.897 385.887 285.897H386.146C386.192 285.897 386.228 285.911 386.254 285.941C386.283 285.966 386.298 286.002 386.298 286.049V286.504C386.298 286.546 386.283 286.582 386.254 286.612C386.228 286.641 386.192 286.656 386.146 286.656H385.652C385.454 286.656 385.298 286.713 385.184 286.827C385.07 286.941 385.013 287.097 385.013 287.295V289.036C385.013 289.078 384.999 289.114 384.969 289.143C384.939 289.173 384.901 289.188 384.855 289.188H384.304ZM388.121 289.188C388.079 289.188 388.043 289.173 388.013 289.143C387.984 289.114 387.969 289.078 387.969 289.036V288.713C387.969 288.599 388.022 288.5 388.127 288.415L389.127 287.422C389.562 287.08 389.863 286.814 390.032 286.624C390.205 286.43 390.291 286.241 390.291 286.055C390.291 285.857 390.237 285.7 390.127 285.587C390.021 285.473 389.861 285.416 389.646 285.416C389.435 285.416 389.268 285.479 389.146 285.606C389.024 285.728 388.948 285.888 388.918 286.087C388.905 286.137 388.882 286.175 388.849 286.2C388.815 286.222 388.777 286.232 388.735 286.232H388.171C388.133 286.232 388.102 286.219 388.076 286.194C388.051 286.169 388.038 286.139 388.038 286.106C388.047 285.857 388.114 285.625 388.241 285.409C388.368 285.19 388.551 285.015 388.792 284.884C389.032 284.749 389.315 284.682 389.64 284.682C389.977 284.682 390.262 284.741 390.494 284.859C390.73 284.973 390.907 285.131 391.026 285.333C391.144 285.536 391.203 285.766 391.203 286.023C391.203 286.306 391.123 286.561 390.962 286.789C390.806 287.017 390.566 287.262 390.241 287.523L389.342 288.434H391.146C391.192 288.434 391.228 288.449 391.253 288.479C391.283 288.504 391.298 288.54 391.298 288.586V289.036C391.298 289.078 391.283 289.114 391.253 289.143C391.228 289.173 391.192 289.188 391.146 289.188H388.121Z" fill="#04146C"/>
<path d="M347.484 315.067H418.752" stroke="#04146C" stroke-width="0.263689" stroke-miterlimit="10"/>
<path d="M347.67 306.822V304.705H357.302V306.822H347.67Z" stroke="#04146C" stroke-width="0.464871"/>
<path d="M347.67 311.264V309.147H357.302V311.264H347.67Z" stroke="#04146C" stroke-width="0.464871"/>
<path d="M362.486 310.635C362.11 310.635 361.787 310.578 361.517 310.464C361.247 310.35 361.043 310.201 360.903 310.015C360.764 309.829 360.69 309.629 360.682 309.414C360.682 309.376 360.695 309.344 360.72 309.319C360.745 309.293 360.777 309.281 360.815 309.281H361.378C361.429 309.281 361.467 309.291 361.492 309.312C361.522 309.329 361.549 309.359 361.574 309.401C361.616 309.544 361.713 309.665 361.865 309.762C362.017 309.859 362.224 309.907 362.486 309.907C362.785 309.907 363.011 309.859 363.163 309.762C363.315 309.66 363.391 309.521 363.391 309.344C363.391 309.226 363.35 309.129 363.27 309.053C363.194 308.977 363.078 308.912 362.922 308.857C362.77 308.802 362.543 308.734 362.239 308.654C361.741 308.536 361.376 308.38 361.144 308.186C360.916 307.988 360.802 307.707 360.802 307.344C360.802 307.1 360.868 306.882 360.998 306.692C361.133 306.503 361.325 306.353 361.574 306.243C361.827 306.133 362.121 306.079 362.454 306.079C362.8 306.079 363.099 306.14 363.353 306.262C363.606 306.384 363.798 306.538 363.928 306.724C364.063 306.905 364.135 307.087 364.144 307.268C364.144 307.306 364.131 307.338 364.106 307.363C364.08 307.389 364.049 307.401 364.011 307.401H363.422C363.334 307.401 363.272 307.361 363.239 307.281C363.213 307.146 363.129 307.034 362.986 306.946C362.842 306.853 362.665 306.806 362.454 306.806C362.218 306.806 362.032 306.851 361.897 306.939C361.762 307.028 361.694 307.156 361.694 307.325C361.694 307.443 361.728 307.54 361.796 307.616C361.863 307.692 361.969 307.76 362.112 307.819C362.26 307.878 362.471 307.943 362.745 308.015C363.116 308.099 363.412 308.194 363.631 308.3C363.855 308.405 364.019 308.538 364.125 308.699C364.23 308.859 364.283 309.063 364.283 309.312C364.283 309.582 364.207 309.819 364.055 310.021C363.907 310.219 363.696 310.371 363.422 310.477C363.152 310.582 362.84 310.635 362.486 310.635ZM366.35 310.635C365.881 310.635 365.508 310.5 365.23 310.23C364.955 309.956 364.81 309.572 364.793 309.078L364.787 308.92L364.793 308.762C364.814 308.281 364.962 307.903 365.236 307.629C365.514 307.355 365.886 307.218 366.35 307.218C366.848 307.218 367.232 307.37 367.502 307.673C367.776 307.977 367.913 308.382 367.913 308.888V309.021C367.913 309.063 367.898 309.099 367.869 309.129C367.839 309.158 367.801 309.173 367.755 309.173H365.654V309.224C365.662 309.456 365.725 309.652 365.843 309.812C365.966 309.968 366.132 310.047 366.343 310.047C366.592 310.047 366.793 309.949 366.945 309.755C366.983 309.709 367.012 309.679 367.033 309.667C367.059 309.654 367.094 309.648 367.141 309.648H367.685C367.723 309.648 367.755 309.66 367.78 309.686C367.81 309.707 367.824 309.734 367.824 309.768C367.824 309.869 367.763 309.99 367.641 310.129C367.523 310.264 367.352 310.382 367.128 310.483C366.905 310.584 366.645 310.635 366.35 310.635ZM367.052 308.642V308.623C367.052 308.374 366.989 308.173 366.862 308.021C366.74 307.869 366.569 307.794 366.35 307.794C366.13 307.794 365.96 307.869 365.837 308.021C365.715 308.173 365.654 308.374 365.654 308.623V308.642H367.052ZM368.737 310.572C368.694 310.572 368.659 310.557 368.629 310.527C368.599 310.498 368.585 310.462 368.585 310.42V307.439C368.585 307.397 368.599 307.361 368.629 307.332C368.659 307.298 368.694 307.281 368.737 307.281H369.249C369.296 307.281 369.334 307.296 369.363 307.325C369.393 307.355 369.407 307.393 369.407 307.439V307.699C369.509 307.564 369.635 307.46 369.787 307.389C369.943 307.317 370.12 307.281 370.319 307.281H370.578C370.625 307.281 370.66 307.296 370.686 307.325C370.715 307.351 370.73 307.386 370.73 307.433V307.888C370.73 307.931 370.715 307.967 370.686 307.996C370.66 308.026 370.625 308.04 370.578 308.04H370.085C369.886 308.04 369.73 308.097 369.616 308.211C369.502 308.325 369.445 308.481 369.445 308.68V310.42C369.445 310.462 369.431 310.498 369.401 310.527C369.372 310.557 369.334 310.572 369.287 310.572H368.737ZM372.388 310.572C372.325 310.572 372.276 310.559 372.243 310.534C372.209 310.504 372.181 310.464 372.16 310.414L370.977 307.477L370.964 307.42C370.964 307.382 370.977 307.351 371.002 307.325C371.032 307.296 371.065 307.281 371.103 307.281H371.616C371.696 307.281 371.751 307.321 371.781 307.401L372.622 309.622L373.464 307.401C373.477 307.372 373.496 307.344 373.521 307.319C373.55 307.294 373.586 307.281 373.628 307.281H374.147C374.181 307.281 374.211 307.296 374.236 307.325C374.266 307.351 374.28 307.382 374.28 307.42C374.28 307.445 374.278 307.464 374.274 307.477L373.084 310.414C373.063 310.464 373.036 310.504 373.002 310.534C372.968 310.559 372.92 310.572 372.856 310.572H372.388ZM374.984 306.737C374.942 306.737 374.906 306.722 374.877 306.692C374.847 306.663 374.832 306.627 374.832 306.585V306.129C374.832 306.087 374.847 306.051 374.877 306.022C374.906 305.992 374.942 305.977 374.984 305.977H375.56C375.602 305.977 375.638 305.992 375.668 306.022C375.701 306.051 375.718 306.087 375.718 306.129V306.585C375.718 306.627 375.703 306.663 375.674 306.692C375.644 306.722 375.606 306.737 375.56 306.737H374.984ZM375.009 310.572C374.967 310.572 374.931 310.557 374.902 310.527C374.872 310.498 374.858 310.462 374.858 310.42V307.433C374.858 307.391 374.872 307.355 374.902 307.325C374.931 307.296 374.967 307.281 375.009 307.281H375.535C375.581 307.281 375.617 307.296 375.642 307.325C375.672 307.351 375.687 307.386 375.687 307.433V310.42C375.687 310.462 375.672 310.498 375.642 310.527C375.617 310.557 375.581 310.572 375.535 310.572H375.009ZM377.748 310.635C377.322 310.635 376.995 310.498 376.767 310.224C376.539 309.949 376.417 309.585 376.4 309.129L376.393 308.92L376.4 308.718C376.412 308.275 376.533 307.914 376.76 307.635C376.992 307.357 377.322 307.218 377.748 307.218C378.157 307.218 378.482 307.357 378.722 307.635V306.23C378.722 306.184 378.737 306.148 378.767 306.123C378.796 306.093 378.832 306.079 378.874 306.079H379.412C379.458 306.079 379.494 306.093 379.52 306.123C379.549 306.148 379.564 306.184 379.564 306.23V310.42C379.564 310.462 379.549 310.498 379.52 310.527C379.494 310.557 379.458 310.572 379.412 310.572H378.912C378.87 310.572 378.834 310.557 378.805 310.527C378.775 310.498 378.76 310.462 378.76 310.42V310.186C378.52 310.485 378.182 310.635 377.748 310.635ZM377.982 309.958C378.226 309.958 378.408 309.88 378.526 309.724C378.644 309.568 378.71 309.376 378.722 309.148C378.726 309.097 378.729 309.015 378.729 308.901C378.729 308.791 378.726 308.711 378.722 308.661C378.714 308.45 378.646 308.27 378.52 308.123C378.397 307.971 378.218 307.895 377.982 307.895C377.526 307.895 377.284 308.175 377.254 308.737L377.248 308.926L377.254 309.116C377.284 309.677 377.526 309.958 377.982 309.958ZM381.863 310.635C381.369 310.635 380.988 310.508 380.717 310.255C380.447 309.998 380.302 309.648 380.281 309.205L380.275 308.926L380.281 308.648C380.302 308.209 380.45 307.861 380.724 307.604C380.998 307.346 381.378 307.218 381.863 307.218C382.348 307.218 382.728 307.346 383.002 307.604C383.276 307.861 383.424 308.209 383.445 308.648C383.449 308.699 383.451 308.791 383.451 308.926C383.451 309.061 383.449 309.154 383.445 309.205C383.424 309.648 383.278 309.998 383.008 310.255C382.738 310.508 382.357 310.635 381.863 310.635ZM381.863 310.009C382.087 310.009 382.26 309.939 382.382 309.8C382.504 309.656 382.572 309.447 382.584 309.173C382.589 309.131 382.591 309.049 382.591 308.926C382.591 308.804 382.589 308.722 382.584 308.68C382.572 308.405 382.504 308.199 382.382 308.059C382.26 307.916 382.087 307.844 381.863 307.844C381.639 307.844 381.466 307.916 381.344 308.059C381.222 308.199 381.154 308.405 381.142 308.68L381.135 308.926L381.142 309.173C381.154 309.447 381.222 309.656 381.344 309.8C381.466 309.939 381.639 310.009 381.863 310.009ZM384.304 310.572C384.262 310.572 384.226 310.557 384.197 310.527C384.167 310.498 384.153 310.462 384.153 310.42V307.439C384.153 307.397 384.167 307.361 384.197 307.332C384.226 307.298 384.262 307.281 384.304 307.281H384.817C384.864 307.281 384.901 307.296 384.931 307.325C384.961 307.355 384.975 307.393 384.975 307.439V307.699C385.077 307.564 385.203 307.46 385.355 307.389C385.511 307.317 385.688 307.281 385.887 307.281H386.146C386.192 307.281 386.228 307.296 386.254 307.325C386.283 307.351 386.298 307.386 386.298 307.433V307.888C386.298 307.931 386.283 307.967 386.254 307.996C386.228 308.026 386.192 308.04 386.146 308.04H385.652C385.454 308.04 385.298 308.097 385.184 308.211C385.07 308.325 385.013 308.481 385.013 308.68V310.42C385.013 310.462 384.999 310.498 384.969 310.527C384.939 310.557 384.901 310.572 384.855 310.572H384.304ZM389.652 310.635C389.281 310.635 388.965 310.576 388.703 310.458C388.446 310.34 388.252 310.192 388.121 310.015C387.994 309.833 387.927 309.648 387.918 309.458C387.918 309.42 387.931 309.39 387.956 309.369C387.986 309.344 388.019 309.331 388.057 309.331H388.627C388.72 309.331 388.781 309.374 388.811 309.458C388.903 309.762 389.186 309.914 389.659 309.914C389.916 309.914 390.118 309.855 390.266 309.736C390.414 309.614 390.488 309.441 390.488 309.217C390.488 308.796 390.224 308.585 389.697 308.585H389.045C388.998 308.585 388.96 308.57 388.931 308.54C388.901 308.511 388.886 308.475 388.886 308.433V308.167C388.886 308.099 388.916 308.036 388.975 307.977L390.108 306.87H388.298C388.256 306.87 388.22 306.855 388.19 306.825C388.161 306.796 388.146 306.76 388.146 306.718V306.3C388.146 306.254 388.159 306.216 388.184 306.186C388.214 306.157 388.252 306.142 388.298 306.142H391.013C391.059 306.142 391.097 306.157 391.127 306.186C391.156 306.216 391.171 306.254 391.171 306.3V306.68C391.171 306.743 391.144 306.802 391.089 306.857L389.994 307.983L390.07 307.99C390.475 308.023 390.796 308.146 391.032 308.357C391.272 308.568 391.393 308.869 391.393 309.262C391.393 309.54 391.317 309.783 391.165 309.99C391.017 310.196 390.81 310.357 390.545 310.471C390.283 310.58 389.986 310.635 389.652 310.635Z" fill="#04146C"/>
<path d="M76.0177 36.0376C78.7323 36.0395 81.3985 36.7585 83.7482 38.1223C83.5335 36.9149 83.4259 35.6907 83.4268 34.4643C83.4229 29.1306 85.4052 23.9879 88.9848 20.0449C92.5644 16.1019 97.483 13.643 102.776 13.1505C108.069 12.658 113.354 14.1675 117.596 17.3829C121.837 20.5982 124.728 25.2875 125.701 30.5309C128.276 29.5829 131.026 29.2111 133.76 29.4416C136.493 29.6721 139.142 30.4993 141.523 31.8653C143.904 33.2313 145.959 35.1031 147.543 37.3496C149.128 39.596 150.203 42.1628 150.695 44.8702C151.187 47.5776 151.083 50.3602 150.39 53.023C149.698 55.6858 148.433 58.1645 146.686 60.2855C144.938 62.4065 142.749 64.1185 140.273 65.3016C137.797 66.4847 135.092 67.1104 132.35 67.1347H76.0177C71.9703 67.0433 68.1193 65.3659 65.289 62.4614C62.4587 59.5569 60.8739 55.6562 60.8739 51.594C60.8739 47.5319 62.4587 43.6311 65.289 40.7266C68.1193 37.8222 71.9703 36.1447 76.0177 36.0533V36.0376Z" fill="white" stroke="#04146C" stroke-width="0.829439" stroke-miterlimit="10"/>
<path d="M12.1503 60.982C11.1255 56.521 11.2675 51.869 12.5625 47.4796C13.8575 43.0902 16.2612 39.1131 19.5395 35.936C22.8177 32.7588 26.8586 30.49 31.2682 29.3508C35.6779 28.2115 40.3058 28.2406 44.7009 29.4353C47.3786 24.6603 51.519 20.8834 56.5049 18.6676C61.4909 16.4517 67.0554 15.9155 72.369 17.1389C77.6827 18.3624 82.4609 21.2799 85.9915 25.4566C89.522 29.6334 91.6158 34.8457 91.9609 40.3166C94.7547 39.7793 97.6288 39.8285 100.403 40.4613C103.177 41.094 105.791 42.2965 108.081 43.9934C110.371 45.6902 112.287 47.8448 113.71 50.3218C115.133 52.7988 116.031 55.5449 116.348 58.3875C119.209 58.6902 121.855 60.0555 123.768 62.2162C125.68 64.377 126.723 67.1777 126.691 70.0705C126.659 72.9633 125.554 75.7399 123.594 77.8572C121.634 79.9744 118.958 81.28 116.091 81.5184H19.4665C17.1005 81.5009 14.7968 80.7532 12.867 79.3763C10.9373 77.9994 9.47443 76.0598 8.67641 73.8198C7.87837 71.5797 7.78362 69.1472 8.40491 66.8512C9.02621 64.5553 10.3336 62.5065 12.1503 60.982Z" fill="#04146C" stroke="#04146C" stroke-width="1.83457" stroke-linecap="round" stroke-linejoin="round"/>
<path d="M52.6504 39.9844V66.873" stroke="white" stroke-width="1.65888" stroke-linecap="round" stroke-linejoin="round"/>
<path d="M47.5703 63.7358L52.65 70.0206L57.7297 63.7358" fill="white"/>
<path d="M47.5703 63.7358L52.65 70.0206L57.7297 63.7358" stroke="white" stroke-width="1.65888" stroke-linecap="round" stroke-linejoin="round"/>
<path d="M73.042 69.9746L73.042 43.086" stroke="white" stroke-width="1.65888" stroke-linecap="round" stroke-linejoin="round"/>
<path d="M78.1221 46.2231L73.0424 39.9384L67.9627 46.2231" fill="white"/>
<path d="M78.1221 46.2231L73.0424 39.9384L67.9627 46.2231" stroke="white" stroke-width="1.65888" stroke-linecap="round" stroke-linejoin="round"/>
<path d="M158.179 170.344H63V114.549" stroke="#04146C" stroke-width="0.5"/>
<path d="M286.18 170.344H381.359V114.549" stroke="#04146C" stroke-width="0.5"/>
<path d="M286.18 178.344H381.359V234.139" stroke="#04146C" stroke-width="0.5"/>
<path d="M158.179 178.344H63V234.139" stroke="#04146C" stroke-width="0.5"/>
<path d="M395.916 27.5488H363.453C358.231 27.5488 356 29.7802 356 35.0016V107.557C356 112.779 358.231 117.011 363.453 117.011H395.916C401.138 117.011 403.369 112.779 403.369 107.557V35.0016C403.369 29.7802 401.138 27.5488 395.916 27.5488Z" fill="white" stroke="#04146C" stroke-width="0.635136" stroke-linecap="round" stroke-linejoin="round"/>
<path d="M397.759 36.8696H361.273C360.572 36.8696 360.003 37.4383 360.003 38.1399V103.645C360.003 104.346 360.572 104.915 361.273 104.915H397.759C398.46 104.915 399.029 104.346 399.029 103.645V38.1399C399.029 37.4383 398.46 36.8696 397.759 36.8696Z" fill="#04146C" stroke="#04146C" stroke-width="0.317568" stroke-linecap="round" stroke-linejoin="round"/>
<path d="M384.034 33.4795H374.641C374.475 33.4795 374.315 33.4133 374.197 33.2954C374.079 33.1775 374.013 33.0176 374.013 32.8509C374.011 32.7673 374.026 32.6842 374.057 32.6065C374.088 32.5289 374.134 32.4581 374.193 32.3984C374.251 32.3387 374.321 32.2913 374.398 32.259C374.475 32.2266 374.558 32.2099 374.641 32.21H384.034C384.118 32.2099 384.2 32.2266 384.277 32.259C384.354 32.2913 384.424 32.3387 384.483 32.3984C384.541 32.4581 384.587 32.5289 384.618 32.6065C384.649 32.6842 384.664 32.7673 384.663 32.8509C384.663 33.0176 384.596 33.1775 384.478 33.2954C384.361 33.4133 384.201 33.4795 384.034 33.4795Z" fill="#04146C"/>
<path d="M382.141 111.131C382.144 110.624 381.995 110.127 381.715 109.704C381.435 109.28 381.035 108.95 380.567 108.754C380.099 108.558 379.583 108.505 379.085 108.603C378.587 108.7 378.129 108.944 377.769 109.302C377.409 109.66 377.164 110.117 377.064 110.614C376.964 111.112 377.014 111.628 377.208 112.097C377.401 112.566 377.73 112.968 378.152 113.25C378.574 113.532 379.07 113.683 379.577 113.683C380.255 113.683 380.906 113.414 381.386 112.936C381.866 112.458 382.138 111.809 382.141 111.131Z" fill="#04146C"/>
<path d="M388.648 83.2594H370.971C370.582 83.2594 370.209 83.1053 369.933 82.8309C369.658 82.5565 369.502 82.184 369.5 81.795V73.469C369.5 70.7356 370.586 68.1141 372.519 66.1813C374.451 64.2484 377.073 63.1626 379.806 63.1626C382.54 63.1626 385.161 64.2484 387.094 66.1813C389.027 68.1141 390.113 70.7356 390.113 73.469V81.795C390.113 82.1834 389.959 82.5559 389.684 82.8305C389.409 83.1051 389.037 83.2594 388.648 83.2594ZM372.443 80.3237H387.177V73.469C387.207 72.4825 387.039 71.4999 386.683 70.5795C386.326 69.6592 385.788 68.8198 385.101 68.1112C384.414 67.4027 383.592 66.8393 382.683 66.4546C381.774 66.0699 380.797 65.8716 379.81 65.8716C378.823 65.8716 377.846 66.0699 376.937 66.4546C376.028 66.8393 375.206 67.4027 374.518 68.1112C373.831 68.8198 373.294 69.6592 372.937 70.5795C372.58 71.4999 372.412 72.4825 372.443 73.469V80.3237Z" fill="white" stroke="#04146C" stroke-width="0.635136" stroke-linecap="round" stroke-linejoin="round"/>
<path d="M390.915 79.2495H368.412V98.2654H390.915V79.2495Z" fill="white" stroke="#04146C" stroke-width="0.635136" stroke-linecap="round" stroke-linejoin="round"/>
<path d="M382.003 87.1425C382.005 86.7079 381.891 86.2806 381.673 85.9043C381.456 85.528 381.142 85.2162 380.765 85.0008C380.387 84.7854 379.959 84.6741 379.524 84.6783C379.09 84.6826 378.664 84.8021 378.291 85.0248C377.918 85.2475 377.61 85.5653 377.4 85.9457C377.19 86.3262 377.084 86.7556 377.094 87.1902C377.105 87.6247 377.23 88.0488 377.458 88.419C377.685 88.7892 378.007 89.0923 378.391 89.2973L377.979 93.6207H381.131L380.72 89.2973C381.109 89.0878 381.433 88.7768 381.659 88.3973C381.885 88.0178 382.004 87.5842 382.003 87.1425Z" fill="#04146C" stroke="#04146C" stroke-width="0.635136" stroke-miterlimit="10"/>
<path d="M368.001 54.0846C368.167 53.9234 368.389 53.8336 368.62 53.8347L368.622 53.8347C368.733 53.8346 368.842 53.8569 368.945 53.9001C369.047 53.9434 369.139 54.0068 369.216 54.0865L369.216 54.0865L369.219 54.0897C371.734 56.619 375.646 58.129 379.732 58.158C383.591 58.25 387.341 56.8758 390.226 54.3124L390.226 54.3125L390.235 54.3042C390.4 54.1461 390.621 54.0599 390.849 54.0647C391.078 54.0695 391.295 54.1648 391.453 54.3296C391.611 54.4945 391.697 54.7154 391.692 54.9437C391.689 55.1024 391.642 55.2557 391.558 55.3875L391.428 55.5118C388.573 58.2373 384.2 59.8725 379.725 59.845C375.251 59.8176 370.83 58.0935 368.002 55.3002C367.841 55.1388 367.75 54.9201 367.75 54.6921C367.75 54.4644 367.84 54.2459 368.001 54.0846ZM369.068 53.6077C369.21 53.6676 369.338 53.7554 369.444 53.8658L368.622 53.5171C368.775 53.517 368.927 53.5478 369.068 53.6077Z" fill="white" stroke="#04146C" stroke-width="0.635136"/>
<path d="M371.257 51.8993L371.257 51.8992L371.25 51.8933C371.157 51.8219 371.08 51.7324 371.024 51.6303C370.967 51.5282 370.931 51.4156 370.92 51.2994C370.908 51.1831 370.92 51.0657 370.955 50.9543C370.99 50.8428 371.047 50.7397 371.123 50.6511C371.199 50.5625 371.293 50.4903 371.398 50.4389C371.503 50.3876 371.617 50.3581 371.734 50.3523C371.85 50.3465 371.967 50.3646 372.076 50.4053C372.186 50.446 372.286 50.5086 372.37 50.5893L372.38 50.598L372.389 50.6059C374.47 52.2973 377.064 53.2319 379.746 53.2566C382.426 53.2813 385.034 52.3961 387.146 50.7456C387.322 50.6184 387.54 50.5627 387.756 50.5897C387.974 50.617 388.173 50.7263 388.312 50.8953C388.452 51.0643 388.522 51.2803 388.508 51.4992C388.494 51.714 388.401 51.9157 388.246 52.0647C385.822 53.9788 382.817 55.007 379.729 54.9786C376.636 54.95 373.646 53.8634 371.257 51.8993Z" fill="white" stroke="#04146C" stroke-width="0.635136"/>
<path d="M374.402 48.4535L374.402 48.4533L374.394 48.4465C374.255 48.3334 374.154 48.1797 374.107 48.0069C374.06 47.8342 374.067 47.6509 374.129 47.4827C374.191 47.3145 374.303 47.1697 374.451 47.0685C374.599 46.9674 374.775 46.9149 374.954 46.9183L374.954 46.9184L374.961 46.9184C375.161 46.9176 375.353 46.9888 375.504 47.1189C376.668 48.1468 378.159 48.7281 379.711 48.759C381.263 48.7898 382.775 48.2687 383.979 47.2887C384.159 47.1495 384.387 47.0871 384.613 47.1151C384.84 47.1433 385.046 47.2605 385.187 47.441C385.327 47.6215 385.39 47.8504 385.362 48.0774C385.334 48.3044 385.217 48.5109 385.036 48.6514L384.914 48.7468V48.7619C383.419 49.9192 381.571 50.531 379.678 50.4927C377.735 50.4534 375.867 49.7315 374.402 48.4535Z" fill="white" stroke="#04146C" stroke-width="0.635136"/>
<path d="M291.926 295.861C291.479 295.857 291.045 295.719 290.68 295.465C290.316 295.211 290.04 294.854 289.889 294.441L288.815 291.42C288.668 291.004 288.393 290.644 288.028 290.389C287.662 290.135 287.225 289.999 286.778 290H274.556C274.103 289.996 273.66 290.131 273.288 290.385C272.917 290.64 272.635 291.001 272.481 291.42L271.407 294.441C271.261 294.857 270.986 295.217 270.62 295.472C270.255 295.726 269.818 295.862 269.37 295.861H254.185C253.897 295.856 253.611 295.908 253.343 296.014C253.076 296.12 252.833 296.278 252.629 296.479C252.425 296.679 252.264 296.918 252.156 297.181C252.048 297.444 251.995 297.725 252 298.009V321.852C251.995 322.135 252.048 322.417 252.156 322.68C252.264 322.943 252.425 323.181 252.629 323.382C252.833 323.582 253.076 323.74 253.343 323.846C253.611 323.952 253.897 324.005 254.185 324H291.815C292.103 324.005 292.389 323.952 292.657 323.846C292.924 323.74 293.167 323.582 293.371 323.382C293.575 323.181 293.736 322.943 293.844 322.68C293.952 322.417 294.005 322.135 294 321.852V298.009C294.01 297.455 293.798 296.919 293.41 296.517C293.022 296.116 292.489 295.88 291.926 295.861Z" fill="#04146C" stroke="#04146C" stroke-width="0.480664" stroke-linecap="round" stroke-linejoin="round"/>
<rect x="90" y="269" width="111.456" height="22.4413" fill="#3FFFF3"/>
</svg>
